<svg width="48" height="48" viewBox="0 0 48 48" fill="none" xmlns="http://www.w3.org/2000/svg">
<path d="M23.4522 40.4534V10.8305M23.4522 40.4534L20.5373 37.5384C18.8912 35.8924 16.6597 34.9676 14.3319 34.9676H6.99316C5.78129 34.9676 4.80078 33.9852 4.80078 32.7734V9.73335C4.80078 8.52148 5.7832 7.53906 6.99507 7.53906H15.428C17.7559 7.53906 19.9884 8.46379 21.6344 10.1098L23.4522 11.9276L25.27 10.1098C26.916 8.4638 29.1485 7.53906 31.4764 7.53906H41.0065C42.2184 7.53906 43.2008 8.52148 43.2008 9.73335V32.7734C43.2008 33.9852 42.2184 34.9676 41.0065 34.9676H32.5735C30.2457 34.9676 28.0132 35.8924 26.3672 37.5384L23.4522 40.4534Z" stroke="white" stroke-width="3.5" stroke-linecap="round" stroke-linejoin="round"/>
</svg>
